<svg version="1.0" xmlns="http://www.w3.org/2000/svg" viewBox="0 0 1536 1024" preserveAspectRatio="xMidYMid meet">
<g transform="translate(0,1024) scale(0.1,-0.1)" fill="currentColor" stroke="none">
<path d="M7761 7800 c35 0 192 -177 178 -201 -4 -9 -9 -37 -10 -65 -2 -45 6 -63 90 -213 50 -90 91 -166 91 -169 0 -3 12 -21 27 -40 15 -20 62 -99 104 -176 90 -164 149 -270 311 -556 36 -63 114 -200 173 -305 59 -104 118 -209 132 -232 44 -78 15 -45 -62 71 -70 105 -79 114 -103 110 -15 -3 -36 -15 -47 -27 -12 -13 -26 -22 -32 -20 -6 2 -15 -1 -19 -8 -4 -8 -3 -9 4 -5 7 4 4 -7 -6 -23 -9 -17 -24 -31 -32 -31 -13 0 -13 -1 0 -10 12 -8 12 -12 3 -18 -10 -6 -3 -29 27 -93 22 -46 35 -77 30 -69 -92 136 -524 857 -561 933 -44 93 -45 137 -10 248 36 111 36 109 16 109 -8 0 -15 6 -15 13 -1 21 -28 -36 -52 -108 -18 -56 -23 -92 -23 -177 1 -60 -3 -108 -7 -108 -8 0 -45 56 -151 230 -39 63 -81 130 -95 148 -23 30 -26 31 -43 16 -9 -8 -73 -102 -141 -207 l-123 -191 -6 115 c-6 110 -41 255 -59 244 -3 -2 -14 5 -23 16 -9 10 -14 19 -10 19 3 0 -4 9 -17 20 -13 11 -25 19 -26 17 -2 -2 13 -50 33 -108 29 -81 37 -120 38 -174 0 -68 -2 -74 -64 -185 -115 -206 -421 -709 -463 -760 l-19 -25 16 33 c17 34 14 68 -5 57 -5 -3 -10 -1 -10 4 0 6 -5 11 -11 11 -6 0 -25 11 -43 25 -18 14 -36 22 -39 19 -4 -4 -13 -2 -21 5 -39 33 -51 24 -136 -105 -83 -125 -125 -175 -79 -93 14 24 86 150 161 279 74 129 242 423 374 654 131 230 251 439 266 465 15 25 63 111 107 191 82 151 91 185 61 240 -6 12 -8 29 -5 39 8 28 110 120 150 136 19 8 40 25 46 37 7 13 23 40 37 62 l24 39 29 -52 c16 -28 34 -51 40 -51z"/>
<path d="M8489 6626 c17 -25 37 -50 44 -58 35 -37 99 -121 139 -183 25 -38 69 -99 98 -135 29 -36 59 -80 68 -97 9 -18 23 -35 31 -38 9 -3 52 -53 96 -111 174 -229 198 -260 234 -299 21 -22 52 -60 69 -85 34 -47 124 -165 205 -267 28 -35 68 -71 95 -86 26 -14 57 -37 69 -50 11 -14 44 -40 72 -58 l52 -34 -54 -5 c-30 -3 -60 -10 -68 -16 -8 -7 -33 -18 -56 -24 -37 -11 -50 -25 -108 -107 -60 -85 -90 -110 -90 -73 0 7 -9 14 -20 16 -11 1 -92 33 -180 71 -88 38 -198 84 -245 103 -277 109 -1033 478 -1080 527 -19 19 -15 18 90 -34 47 -22 189 -91 315 -151 127 -60 301 -144 389 -186 87 -42 161 -74 164 -71 3 3 0 5 -6 5 -7 0 -12 7 -12 15 0 8 -4 15 -9 15 -5 0 -11 12 -14 28 -6 31 -98 132 -121 132 -8 0 -18 9 -21 20 -3 11 -14 20 -22 20 -9 0 -14 3 -10 6 8 9 -14 30 -41 38 -11 4 -31 19 -44 34 -28 33 -200 114 -225 106 -14 -4 -15 -3 -5 4 11 7 11 10 -2 15 -9 4 -16 2 -16 -3 0 -9 -55 -25 -80 -23 -55 4 -86 9 -90 13 -11 11 -70 41 -70 35 0 -3 -8 -1 -18 4 -10 5 -38 12 -62 16 -25 4 -48 9 -52 11 -5 3 -8 -1 -8 -8 0 -9 -3 -9 -10 2 -8 12 -13 13 -29 3 -18 -11 -21 -7 -45 65 -14 42 -36 138 -50 212 -45 239 -48 252 -58 238 -8 -11 -11 -10 -15 2 -4 8 -23 -69 -43 -170 -47 -239 -86 -369 -117 -393 -23 -19 -149 -84 -493 -257 -192 -97 -235 -117 -420 -195 -287 -121 -577 -247 -608 -266 -18 -10 -34 -19 -36 -19 -2 0 -33 45 -71 100 -37 55 -70 98 -74 96 -3 -2 -24 5 -46 16 -22 11 -65 23 -95 27 l-55 7 30 16 c17 9 62 44 100 77 39 34 75 61 82 61 6 0 69 75 140 167 70 91 169 216 218 277 50 61 135 167 189 236 54 69 105 125 114 125 9 0 25 16 37 36 11 19 35 53 54 75 l34 39 -38 -70 c-21 -38 -95 -158 -165 -265 -171 -261 -266 -431 -254 -451 2 -4 30 -15 61 -24 65 -19 51 -22 341 66 181 55 545 198 666 262 112 60 156 113 255 306 45 88 88 179 97 203 l15 42 -27 -25 c-15 -13 -67 -85 -116 -159 -50 -74 -93 -138 -97 -143 -4 -4 -6 11 -5 33 2 42 -3 48 -25 28 -24 -23 4 21 98 152 49 69 127 180 173 247 46 68 85 123 88 123 3 0 16 -18 30 -39 62 -97 182 -272 216 -317 48 -62 143 -198 172 -246 23 -36 23 -37 2 -33 -16 3 -18 1 -11 -13 21 -40 98 -83 278 -155 95 -38 172 -77 152 -77 -28 0 -414 173 -442 198 -11 9 -71 94 -134 189 -122 182 -157 221 -122 130 55 -141 178 -351 234 -399 54 -48 413 -204 649 -282 152 -51 375 -107 400 -101 71 19 96 30 96 42 0 7 -4 13 -10 13 -13 0 -41 67 -34 83 2 7 -30 67 -72 133 -42 65 -142 223 -222 349 -79 127 -163 258 -185 292 -21 35 -43 61 -47 58 -6 -4 -36 39 -150 223 -45 71 -46 83 -1 18z"/>
<path d="M7195 5710 c-27 -12 -43 -12 -25 0 8 5 22 9 30 9 10 0 8 -3 -5 -9z"/>
<path d="M8929 5595 c13 -22 15 -31 6 -20 -18 22 -53 86 -38 70 6 -5 20 -28 32 -50z"/>
<path d="M7530 5324 c0 -7 -141 -218 -217 -324 -35 -48 -58 -89 -54 -95 5 -5 11 -22 15 -37 6 -28 175 -244 267 -342 l57 -61 43 12 c24 6 68 9 96 6 36 -4 58 -1 69 8 45 37 250 295 293 368 l32 54 -40 56 c-101 141 -243 353 -239 357 3 2 55 -24 116 -59 61 -34 181 -100 267 -146 85 -46 153 -86 151 -89 -3 -2 -51 17 -108 43 -57 25 -109 49 -115 52 -8 3 -13 -3 -13 -18 0 -13 -6 -41 -13 -62 -12 -33 -11 -44 4 -90 32 -92 20 -146 -48 -218 -14 -15 -26 -43 -29 -65 -3 -26 -16 -50 -36 -71 -38 -39 -33 -41 31 -8 63 31 64 9 3 -35 -44 -32 -56 -52 -67 -114 -7 -33 -5 -36 16 -37 22 0 23 -1 4 -9 -11 -4 -60 -17 -109 -29 -74 -17 -94 -26 -120 -54 -17 -18 -46 -39 -64 -47 -29 -11 -38 -11 -67 3 -18 8 -48 29 -66 44 -25 21 -65 38 -144 59 -74 19 -101 30 -82 32 23 3 27 8 27 35 0 18 -4 47 -10 66 -9 31 -8 33 13 28 17 -4 12 4 -21 33 -35 32 -43 45 -48 86 -3 26 -23 84 -44 128 -58 122 -58 131 -11 225 37 73 59 161 40 161 -9 0 -67 -25 -183 -79 -49 -23 -91 -40 -93 -37 -2 2 56 37 129 76 73 40 183 101 243 136 109 62 125 70 125 58z"/>
<path d="M6451 4780 c-29 -16 -107 -55 -172 -87 -68 -32 -116 -60 -111 -65 5 -5 92 -29 193 -53 244 -59 342 -86 354 -98 13 -13 -23 -6 -290 53 -339 75 -365 82 -365 89 0 8 417 189 435 190 6 0 -14 -13 -44 -29z"/>
<path d="M9215 4677 c55 -24 99 -47 99 -52 -1 -6 -44 -20 -95 -32 -253 -61 -478 -112 -514 -117 l-40 -6 29 16 c15 9 119 37 230 64 110 26 228 56 261 66 l60 17 -132 63 c-73 35 -133 66 -133 68 0 6 106 -33 235 -87z"/>
<path d="M6997 4663 c-3 -3 -12 -4 -19 -1 -8 3 -5 6 6 6 11 1 17 -2 13 -5z"/>
<path d="M7065 4647 c25 -11 -1 -11 -35 0 -20 6 -21 8 -5 8 11 0 29 -3 40 -8z"/>
<path d="M7127 4631 c-3 -3 -12 -4 -19 -1 -8 3 -5 6 6 6 11 1 17 -2 13 -5z"/>
<path d="M7435 5691 c-34 -32 -170 -99 -197 -96 -14 2 -37 10 -50 19 -14 9 -34 14 -44 11 -12 -4 -9 0 6 9 48 29 9 16 -95 -34 -58 -27 -159 -73 -225 -101 -92 -40 -120 -57 -120 -71 0 -10 -7 -21 -15 -24 -8 -4 -12 -10 -9 -15 3 -5 -13 -26 -34 -46 -41 -40 -76 -96 -65 -107 4 -3 1 -6 -5 -6 -7 0 -12 -9 -12 -20 0 -13 -7 -20 -19 -20 -10 0 -21 -7 -25 -15 -3 -8 -4 -15 -3 -15 12 0 261 116 522 243 496 243 490 239 493 264 3 17 -3 26 -23 33 -38 15 -58 12 -80 -9z"/>
<path d="M9170 5544 c0 -6 7 -19 15 -30 8 -10 14 -14 14 -9 0 6 -6 19 -14 29 -8 11 -15 15 -15 10z"/>
<path d="M8970 5100 c8 -5 20 -10 25 -10 6 0 3 5 -5 10 -8 5 -19 10 -25 10 -5 0 -3 -5 5 -10z"/>
<path d="M9013 5087 c5 -15 75 -42 84 -33 11 11 -12 27 -51 36 -27 6 -36 5 -33 -3z"/>
<path d="M4994 3733 c27 -11 59 -55 190 -262 87 -136 160 -254 163 -261 4 -10 -11 -13 -65 -13 l-69 0 -37 55 -36 55 -220 0 -219 0 -33 -55 -33 -55 -73 0 -73 0 16 28 c88 144 335 499 355 509 33 17 93 16 134 -1z"/>
<path d="M10559 3736 c34 -12 70 -61 258 -354 132 -206 127 -185 41 -185 l-73 1 -33 54 -33 55 -219 0 -218 0 -31 -50 c-17 -28 -37 -53 -45 -56 -7 -3 -41 -4 -74 -2 l-61 3 153 238 c158 245 186 283 221 297 29 12 77 12 114 -1z"/>
<path d="M5720 3543 c0 -192 0 -195 24 -223 l24 -28 191 0 c255 0 236 -20 235 245 l-2 200 69 0 69 0 0 -191 c0 -216 -9 -268 -52 -304 -49 -41 -92 -47 -346 -43 -269 3 -285 8 -322 83 -18 37 -20 62 -20 248 l0 207 65 0 65 0 0 -194z"/>
<path d="M7297 3718 c56 -26 76 -66 77 -156 0 -48 -6 -80 -18 -103 -18 -36 -69 -72 -101 -72 -52 -1 -44 -17 49 -101 52 -46 95 -86 95 -89 1 -3 -36 -4 -82 -2 l-84 3 -89 90 -89 89 -131 0 -131 0 -7 -52 c-3 -29 -6 -70 -6 -90 l0 -38 -58 0 -59 0 -6 173 c-4 94 -7 216 -7 270 l0 97 303 0 c275 0 306 -2 344 -19z"/>
<path d="M8366 3715 c-3 -13 -6 -33 -6 -45 l0 -23 -262 -3 -263 -3 -3 -62 -3 -63 251 0 250 0 0 -45 0 -45 -250 0 -250 0 0 -58 c0 -53 2 -60 25 -70 18 -8 107 -12 272 -12 l246 0 -7 -31 c-3 -17 -6 -38 -6 -45 0 -12 -48 -14 -272 -14 -150 0 -289 5 -309 10 -19 6 -46 22 -60 36 -23 25 -24 31 -27 209 -3 155 -1 189 13 218 30 64 45 67 374 67 l293 0 -6 -22z"/>
<path d="M8899 3660 c47 -42 96 -86 108 -96 21 -19 21 -18 127 77 l107 96 82 0 82 -1 -41 -37 c-22 -20 -85 -77 -140 -126 -54 -48 -100 -92 -102 -96 -1 -4 55 -58 125 -120 70 -63 139 -124 153 -137 l25 -23 -90 0 -90 0 -112 106 -112 105 -113 -105 -113 -105 -88 -1 -88 0 155 137 c85 75 153 140 150 144 -4 8 -195 179 -263 236 l-26 22 89 1 88 0 87 -77z"/>
<path d="M9830 3574 c0 -90 -3 -212 -7 -270 l-6 -107 -57 0 -57 0 -6 98 c-4 53 -7 175 -7 270 l0 172 70 0 70 0 0 -163z"/>
<path d="M4820 3390 c-44 -66 -80 -122 -80 -125 0 -7 217 -5 283 2 l45 5 -76 119 c-43 65 -80 119 -84 119 -4 0 -44 -54 -88 -120z"/>
<path d="M10414 3418 c-32 -51 -66 -104 -77 -118 l-19 -25 39 -7 c53 -10 271 -10 277 0 5 9 -138 235 -152 240 -5 1 -36 -39 -68 -90z"/>
<path d="M6770 3426 l0 -94 178 0 c252 -1 272 7 272 107 0 79 -6 81 -247 81 l-203 0 0 -94z"/>
</g>
</svg>
